<?xml version="1.0" encoding="UTF-8"?>
<!DOCTYPE svg PUBLIC "-//W3C//DTD SVG 1.1//EN" "http://www.w3.org/Graphics/SVG/1.1/DTD/svg11.dtd">
<!-- Creator: CorelDRAW -->
<svg xmlns="http://www.w3.org/2000/svg" xml:space="preserve" width="78mm" height="54mm" style="shape-rendering:geometricPrecision; text-rendering:geometricPrecision; image-rendering:optimizeQuality; fill-rule:evenodd; clip-rule:evenodd"
viewBox="0 0 78 54"
 xmlns:xlink="http://www.w3.org/1999/xlink"
 version="1.1">
 <defs>
  <style type="text/css">
   <![CDATA[
    .str0 {stroke:#1F1A17;stroke-width:0.2;stroke-linecap:round;stroke-linejoin:round}
    .fil3 {fill:none}
    .fil0 {fill:green}
    .fil1 {fill:red}
    .fil2 {fill:white}
   ]]>
  </style>
 </defs>
 <g id="Слой_x0020_1">
  <metadata id="CorelCorpID_0Corel-Layer"/>
  <g id="_38957760">
   <path id="_83412816" class="fil0" d="M8.023 24.8833l65.5163 0c0.0565,-0.1468 0.1256,-0.2951 0.1563,-0.3762 0.1291,-0.3414 0.4497,-0.4395 0.4497,-0.5562 0,-0.1721 -0.1257,-0.2051 -0.1257,-0.3772 0,-0.0375 0.0868,-0.1304 0.1257,-0.1886 -0.0536,-0.0617 -0.1257,-0.1107 -0.1257,-0.2515 0,-0.3664 0.3319,-0.4966 0.6287,-0.5658 0,-0.6753 0.92,-1.2097 1.3357,-1.5563 0.6366,-0.5309 0.2234,-0.2682 0.601,-0.8449 0.1638,-0.2501 0.5121,-0.5214 0.7039,-0.7422l0 -0.2514c-0.0946,-0.1088 -0.1977,-0.3144 -0.3772,-0.3144l-0.2515 0c-0.1977,0 -0.1357,0.1581 -0.503,0.1886 -0.0853,-0.3196 -0.2682,-0.3827 -0.5172,-0.5515 -0.3545,-0.2403 -0.2214,-0.5801 -0.4887,-0.5801 -0.2589,0 -0.3088,0.1653 -0.3936,0.0752 -0.1523,-0.1618 0.1,-0.3749 -0.1784,-0.4473 -0.1234,-0.0321 -0.7804,0.1786 -0.9998,0.1835l0 -0.1886c0,-0.2097 0.1886,-0.1279 0.1886,-0.6287l-0.3143 0c-0.141,0 -0.1381,-0.0497 -0.2353,-0.1279l-0.0791 -0.5007 -0.3772 0c-0.0017,0 -0.8402,-0.2808 -1.064,-0.3192 -0.398,-0.0683 -0.8553,-0.4981 -0.9479,-0.4981l-0.4401 0c-0.006,0 -0.8766,0.2294 -1.0445,0.2758 -0.3568,0.0986 -0.419,0.3809 -0.8481,0.535 -0.4148,0.149 -0.6169,0.1589 -1.0422,0.341 -0.3095,0.1326 -0.6854,0.2941 -1.089,0.2941l-0.2515 0 0 -0.2514c0,-0.141 -0.0498,-0.138 -0.1227,-0.2509l0.0598 -0.3778 -0.1886 0c-0.1697,0 -0.2515,-0.1674 -0.2515,-0.3144 0,-0.2913 0.1174,-0.1891 0.1258,-0.5658 0.258,0.0602 0.4094,0.1886 0.7544,0.1886 0.2368,0 0.1189,-0.0413 0.3727,-0.0617l-0.1841 -0.8813c0.3927,0 0.6287,-0.1214 0.6287,-0.5029l0 -0.2515c0.1796,-0.0418 0.6257,-0.278 0.6007,-0.4406l0.0282 -1.5095 0.0639 -0.0063 0.5647 0.0704 0.1257 0c0.1256,0 0.7545,-1.0663 0.7545,-1.0688 0,-0.2978 -0.4401,-0.1319 -0.4401,-0.5029l0 -0.4401c0,-0.3928 0.161,-0.4222 0.1886,-0.7544l-0.3772 0c-0.3433,0 -0.3484,0.1257 -0.6916,0.1257 -0.0013,0 -0.3252,-0.1134 -0.3688,-0.1341 -0.1956,-0.0932 -0.1342,-0.0627 -0.1342,-0.3688 -0.0632,-0.0423 -0.2188,-0.1933 -0.249,-0.1715l-1.0084 0.1086c-0.2257,0.1511 -0.8802,0.4306 -0.8802,0.7544l0 0.1886c0,0.1776 0.1442,0.2426 0.2515,0.3144 0.6056,0 0.943,0.2192 0.943,0.8173 0,0.4451 -0.1886,0.3969 -0.1886,0.943 -0.1135,0.076 -0.1105,0.1257 -0.2515,0.1257 -0.2651,0 -0.1209,-0.1588 -0.265,-0.3008 -0.0755,-0.0743 -0.2669,-0.0952 -0.4266,-0.2021 0,-0.2656 -0.1523,-0.8802 -0.3772,-0.8802l-0.1886 0c-0.3949,0 -0.4083,0.2786 -0.6215,0.4404l-0.0072 -0.6919 -0.3773 0c-0.038,0.1425 -0.0604,0.2515 -0.2514,0.2515l-0.5659 0c-0.0962,0 -0.503,-0.2094 -0.503,-0.3772l0 -0.0629c0,-0.2312 0.1886,-0.1459 0.1886,-0.3772l0 -0.0628c0,-0.2498 -0.2514,-0.1904 -0.2514,-0.4401 0,-0.2404 -0.0193,-0.0229 0.0725,-0.1993l0.2418 0.1993c0.0654,-0.1235 0.1258,-0.1854 0.1258,-0.3772 0,-0.2613 -0.2869,-0.3143 -0.5659,-0.3143 0.0243,-0.2917 0.2703,-0.3934 0.2688,-0.5059l-0.143 -0.9401c-0.0615,-0.3594 0.5658,-0.4689 0.5784,-1.1191l0.1132 -0.1383 0.3143 0c0.1099,-0.0735 0.4054,-0.2523 0.3912,-0.4421l-0.0768 -0.5637c0.1875,-0.0156 0.3143,-0.0452 0.3143,-0.2515l-0.0002 -0.25 -0.5027 -0.0644 0 -0.2514c0,-0.1449 -0.0438,-0.1886 -0.1887,-0.1886l-0.1886 0c-0.2395,0 -0.6579,0.1936 -0.6937,0.2025l-0.5713 -0.0859 -0.181 0.1348c-0.3458,0 -0.6288,0.15 -0.6288,0.4401 0,0.141 0.0498,0.138 0.1258,0.2515 1.1601,0 0.6916,0.1093 0.6916,0.6915 -0.0882,0.1317 -0.2515,0.4174 -0.2515,0.6287l0 0.0629c0,0.2284 0.0746,0.2205 0.1006,0.392l-0.4488 0.2348 0.0205 0.0929 -0.301 -0.1539c0,-0.1891 0.0546,-0.5658 -0.1258,-0.5658 -0.3466,0 -0.8173,0.6938 -0.8173,0.8173 0,0.1409 0.0498,0.138 0.1257,0.2514 -0.2828,0.1497 -0.4937,0.1496 -0.5065,0.5521l-0.2479 0.0766 0 0.503c-0.1235,0.0653 -0.1854,0.1257 -0.3772,0.1257l-0.0629 0c-0.2498,0 -0.1903,-0.2515 -0.4401,-0.2515l-0.1886 0c-0.1512,0 -0.1849,0.1019 -0.3144,0.1886 0,0.4656 -0.1257,0.2799 -0.1257,0.503l0 0.0628c0,0.1739 0.0485,0.1512 0.1886,0.1886l0 0.3144c0.1294,0.0301 0.1951,0.0834 0.3203,0.0975l1.2515 -0.2233 0.0001 0.1878 0.8801 0.0637c0.2394,0.1603 0.7544,0.4646 0.7544,0.8173 0,0.1862 -0.2515,0.2825 -0.2515,0.4401 0,0.2396 0.1839,0.2452 0.3144,0.44 -0.1279,0.191 -0.444,0.3772 -0.7545,0.3772 -0.3556,0 -0.4115,-0.8172 -0.7544,-0.8172l-0.1886 0c-0.0404,0.1685 -0.0629,0.1185 -0.0629,0.2514 0,0.4401 0.503,0.7105 0.503,1.3203l0 0.7544c0,0.2746 -0.1258,0.2283 -0.1258,0.5029l0 0.0629c0,0.492 0.3667,0.4067 0.3752,0.8941l-0.5638 -0.0768c-0.1916,-0.3621 -0.3324,-0.5659 -0.8802,-0.5659 -0.5296,-0.3546 0.0867,-0.255 -0.6004,-0.5941 -0.3643,-0.1798 0.0884,-0.3489 -0.8456,-0.3489 -0.0734,-0.1386 -0.0549,-0.2514 -0.2515,-0.2514l-0.2515 0c-0.0404,0.1685 -0.0629,0.1185 -0.0629,0.2514 0,0.5487 0.3772,0.3908 0.3772,0.6916l0 0.0628c0,0.1901 -0.0739,0.1739 -0.2384,0.1833l-0.1385 -0.3714 -0.7249 0.372 -0.0298 -0.0581 0 -0.3144c0,-0.5283 -0.4191,-0.5658 -0.9431,-0.5658 -0.046,-0.0686 -0.1729,-0.3143 -0.2515,-0.3143 -0.1933,0 -0.2515,0.1842 -0.2515,0.3772l0 0.1886 -0.2515 0 0 0.1886c0,0.3009 0.2055,0.1358 0.3144,0.0629 -0.0099,0.4419 -0.3773,0.8473 -0.3773,1.1316l0 0.0629c0,0.2166 0.223,0.3591 0.4401,0.3772l0 0.1886c0,0.1286 -1.0244,1.1316 -1.1945,1.1316l-0.0629 0c-0.141,0 -0.138,-0.0498 -0.2253,-0.128l-0.1519 -1.0665 -0.3773 0c-0.2072,-0.1387 -0.1813,-0.1035 -0.434,-0.1946 -0.2872,-0.1035 -0.2795,-0.3083 -0.3833,-0.3083 -0.2896,0 -0.3431,0.6883 -0.8173,1.0058 -1.0183,0 -0.7236,0.5197 -1.1317,0.6287l0 -0.3143c0,-0.2672 -0.1016,-0.3833 -0.3144,-0.4401 0.0164,-0.1966 0.0629,-0.2233 0.0629,-0.4401 0,-0.1471 -0.1043,-0.2514 -0.2515,-0.2514l-0.0629 0c-0.381,0 -0.019,0.6286 -0.3143,0.6286 -0.2239,0 -0.2464,-0.149 -0.2515,-0.3772 -0.2992,0 -0.486,0.0308 -0.5659,0.2515 -0.3686,-0.0307 -0.3566,-0.3143 -0.5029,-0.3143 -0.3159,0 -0.1501,0.5029 -1.006,0.5029 -0.0506,0.0352 -0.1552,0.1257 -0.1886,0.1257 -0.3251,0 -0.6287,-0.7987 -0.6287,-1.1944l0 -0.3144c0,-0.3695 0.6847,-0.7793 0.9541,-0.9948 0.1719,-0.1375 1.1065,-0.5769 1.3721,-0.5769 0.1194,-0.1782 0.3144,-0.3328 0.3144,-0.6287l0 -0.3772c0,-0.1698 -0.03,-0.1733 -0.0629,-0.3143 -0.2381,0.0198 -0.7105,0.3209 -0.7565,0.3283l-0.544 -0.0609 -0.3341 0.3613c-0.9491,0 -0.6955,0.1428 -1.2834,0.5398 -0.7844,0.5297 -0.3981,0.2775 -1.4201,0.2775 -0.2751,-0.4108 -0.2109,-1.0059 -0.7545,-1.0059l-0.1257 0c-0.1915,0 -0.23,0.0285 -0.3773,0.0628 -0.0506,-0.0351 -0.1552,-0.1257 -0.1886,-0.1257 -0.6831,0 -0.554,0.3409 -0.6339,-0.4349 -0.0365,-0.3547 -0.0384,-0.737 -0.1834,-1.0111 -0.6936,0.1616 -0.3745,0.1801 -1.1971,0.1283 -0.3601,-0.0226 -0.3035,-0.0212 -0.3119,-0.3796 -0.0102,-0.4363 -0.0822,-0.2721 -0.2514,-0.5031 0.2435,-0.4602 0.7544,-0.4074 0.7544,-0.7544l0 -0.1257c0,-0.1966 -0.1128,-0.1781 -0.2372,-0.2533l-0.0816 -0.678 -0.1841 -0.0746c0.076,-0.1135 0.1257,-0.1105 0.1257,-0.2515l0 -0.0628c0,-0.3642 -0.7934,-0.7544 -1.1317,-0.7544l-0.3143 0c0,0.6719 0.5029,0.7906 0.5029,0.943 0,0.3897 -0.3869,0.6915 -0.6916,0.6915 -0.1209,0 -0.3207,-0.1257 -0.7524,-0.1271l-0.1906 -0.313c-0.3149,0 -0.5002,-0.0054 -0.5659,-0.2514 0.2258,-0.0603 0.3773,-0.4432 0.3773,-0.6287 0,-0.2656 -0.2439,-0.1886 -0.5044,-0.1871l-0.6273 -0.5045c0.0163,-0.1966 0.0628,-0.2233 0.0628,-0.44 0,-0.2216 -0.2514,-0.2532 -0.2514,-0.3772 0,-0.2858 0.5029,-0.3837 0.5029,-0.6287 0,-0.3972 -0.9431,-0.5567 -0.9431,-1.0059 0,-0.1681 0.503,-0.5657 0.503,-0.8801 0,-0.1029 -0.0376,-0.1886 -0.1257,-0.1886 -0.195,0 -0.2903,0.1872 -0.5659,0.2514 0,-0.4716 -0.8297,-1.4459 -1.2574,-1.4459l-0.3144 0c0.0088,0.3938 0.1886,0.4218 0.1886,0.5029 0,0.1472 -0.1043,0.2515 -0.2514,0.2515l-0.0629 0c-0.4359,0 -0.582,-0.2515 -0.9431,-0.2515 -0.1065,0 -0.2349,0.0837 -0.2982,0.1276l-0.079 0.564 -0.5659 0c-0.4638,0 -0.0562,0.3614 0.2489,0.4427 0.2108,0.0561 0.82,0.0787 0.82,0.3117 0,0.1339 -0.7068,0.8941 -0.8585,0.9647 -0.542,0.2522 -0.6505,0.3854 -0.6421,1.1884l-1.0143 0.4873c0.0154,-0.6923 0.503,-0.2881 0.503,-0.943 0,-0.1472 -0.1044,-0.2515 -0.2515,-0.2515l-0.1886 0c-0.3918,0 -0.5351,0.1435 -0.6916,0.3772l0 0.4401c-0.1218,0.1818 -0.2628,0.3772 -0.5659,0.3772l-0.0628 0c-0.2746,0 -0.2357,-0.5078 -0.7545,-0.6287l0 -0.1886c0.2114,-0.0492 0.4401,-0.222 0.4401,-0.44l0 -0.503c0,-0.2032 -0.2282,-0.3143 -0.4401,-0.3143l-0.4401 0c-0.1918,0 -0.2537,0.0604 -0.3772,0.1257 -0.0889,-0.044 -0.1044,-0.0629 -0.2515,-0.0629l-0.1258 0c-0.5011,0 -0.2156,0.3772 -0.9339,0.3848l-0.1355 0.1833 -0.3138 -0.0651 0 0.3143 0.2515 0c0.0581,0.2491 0.2515,0.4019 0.2515,0.6287 0,0.209 -0.4261,0.5658 -0.5658,0.5658l-0.1886 0c-0.1514,0 -0.3773,-0.2258 -0.3773,-0.3772l0 -0.0629c0,-0.3517 0.3773,-0.0254 0.3773,-0.3772l0 -0.1257c0,-0.2388 -0.4466,-0.2515 -0.6916,-0.2515 -0.1697,0 -0.2515,0.1674 -0.2515,0.3144 0,0.2797 0.178,0.0275 0.1886,0.5029l-0.175 0.0018 -0.2651 1.6956 -0.1258 0 0 -0.1886c-0.2014,0.0045 -0.3143,-0.0204 -0.3143,0.1886l0 0.3144c-1.0126,-0.0226 -0.7711,-1.3831 -1.3832,-1.3831l-0.0629 0c-0.1932,0 -0.2515,0.1842 -0.2515,0.3772l0 0.0629c0,0.191 0.1091,0.2134 0.2515,0.2514 -0.0617,0.2312 -0.2093,0.245 -0.4888,0.2488l-0.077 -0.3116c-0.3772,0.1007 -0.4572,0.4097 -0.7138,0.4807 -0.7474,0.2069 -0.3304,-0.1801 -0.5552,0.7022 -0.1547,0.6071 -1.2459,0.6903 -1.2459,1.206l0 0.3144c0,0.1918 0.0604,0.2537 0.1271,0.3864l1.3089 -0.1912 0.1987 0.3077c-0.0012,0.001 -0.1173,0.0629 -0.1258,0.0629 -0.1511,0 -0.1848,-0.1019 -0.3143,-0.1886 -0.365,0.085 -0.5559,0.1825 -0.5659,0.6287 -0.427,0.2259 -0.578,0.567 -0.9417,0.8186 -0.7605,0.5261 -0.4015,0.329 -0.7558,1.0674 0.042,0.0794 0.1257,0.2078 0.1257,0.3143 0,0.147 -0.0817,0.3144 -0.2514,0.3144 -0.176,0 -0.1661,-0.1338 -0.3874,-0.1785 -0.2101,-0.0425 -0.3446,-0.0238 -0.5557,-0.073l0 -0.5658c-0.3927,0.0087 -0.3144,0.0603 -0.3144,0.4401 -0.1552,0.2317 -0.503,0.3461 -0.503,0.5658l0 0.0628c0,0.2979 0.4401,0.142 0.4401,0.4401 0,0.1483 -0.1233,0.2797 -0.1886,0.3772 0,1.2612 -0.4011,0.943 -1.7051,0.9339l-0.181 0.1349c-0.1147,-0.0997 -0.2235,-0.1886 -0.4401,-0.1886l-0.3773 0c-0.1537,0 -0.923,0.3962 -1.0185,0.4905 -0.1762,0.1739 -0.0503,0.926 -0.0437,1.3225l0.3078 0.1987 -0.005 0.511 0.508 0.2434 0 0.1258c-0.1411,-0.0329 -0.1446,-0.0629 -0.3144,-0.0629l-0.2515 0c-0.1942,0 -0.2083,0.1886 -0.4401,0.1886 -0.1607,0 -0.0939,-0.3143 -0.3772,-0.3143l-0.0629 0c-0.1791,0 -0.6916,0.6957 -0.6916,0.7544l0 1.1316 -0.3143 0c-0.3021,0 -0.3267,-0.1886 -0.6288,-0.1886 -0.2451,0 -0.3712,0.2978 -0.3772,0.5658l-0.1257 0 0 -0.3143c0,-0.1472 -0.1044,-0.2515 -0.2515,-0.2515 -0.0703,0 -0.9431,0.9948 -0.9431,1.3202l0 0.503c0,0.1409 0.0498,0.138 0.1261,0.2549l0.817 -0.0663 0.0057 0.292 0.623 0.1481 0 0.1257c-0.3927,0.0087 -0.3144,0.0603 -0.3004,0.454l-0.2666 0.2185 -1.3146 0.0722 -0.3189 -0.116 0 0.3772c0,0.1931 -0.338,0.4133 -0.4401,0.5658 0,0.4548 0.0014,0.4489 -0.2072,0.7358 -0.1412,0.1943 -0.1971,0.4829 -0.277,0.6995z"/>
   <path id="_83421120" class="fil1" d="M67.5899 29.1166l-57.7776 0c0.0674,0.0836 0.1409,0.173 0.1409,0.3667l0 0.1886c0,0.3201 -0.3143,0.057 -0.3143,0.3772l0 0.1257c0,0.3215 0.2207,0.3848 0.2515,0.7544l-0.2515 0 0 -0.1886c0,-0.193 -0.0582,-0.3772 -0.2515,-0.3772l-0.3144 0c-0.384,0 -0.9592,0.4729 -1.3203,0.503l0 0.1886c0,0.1935 0.221,0.639 0.2515,1.0058l0.1963 0.0013 0.0557 -0.4406 0.251 -0.1265c0.1076,0.2243 -0.0118,0.6916 0.1886,0.6916 0.2044,0 0.0475,-0.0545 0.3143,-0.1258 0.0063,0.2789 -0.02,0.2918 0.2515,0.3144l0.0526 0.0372 -0.6146 0.7739 -0.381 -0.1824c-0.0045,0.2014 0.0204,0.3143 -0.1887,0.3143l-0.1886 0c-0.6323,0 -0.4251,-0.3772 -0.7544,-0.3772l-0.2515 0c-1.2275,0 -0.5659,1.6128 -0.5782,2.5542l0.6411 0.1491c-0.0656,0.0979 -0.0834,0.1886 -0.2515,0.1886l-0.0629 0c-0.8799,0 -0.2516,-1.5717 -0.8802,-1.5717l-0.146 0.0013 -0.0426 1.1932c-0.0037,0.1258 0.0979,-0.0204 0.1257,0.3144 -0.1789,-0.0947 -0.7502,-0.6919 -0.8173,-0.9431 -0.4616,0.0384 -0.1852,0.4401 -0.5659,0.4401l-0.1886 0c-0.2376,0 -0.4193,-0.1534 -0.5658,-0.2515 -0.8411,0 -0.7751,-0.6915 -1.1317,-0.6915l-0.1258 0c-0.3994,0 0.0614,0.5407 0.1258,0.8173l-0.3144 0c-0.4494,0 -0.6287,0.1792 -0.6287,0.6287l0 0.7544c0.2015,0.0044 0.3144,-0.0205 0.3144,0.1886l0 0.0628c0,0.141 -0.0498,0.138 -0.1258,0.2515 -0.3732,0 -1.0059,0.2604 -1.0059,0.5658l0 0.1257c0,0.2033 0.2282,0.3144 0.4401,0.3144l0.0629 0c0.2518,0 0.512,-0.1757 0.5658,-0.3772l0.1257 0c-0.0245,0.2947 -0.1257,0.3109 -0.1257,0.6287 0,0.095 0.3141,0.5723 0.3772,0.6915l0.0308 0.077 -0.7727 0.2499 -0.1383 0.1132c0,0.5031 0.1109,0.9375 0.1282,1.3807 0.0179,0.4621 -0.0951,1.1968 0.3748,1.1968 0.2235,0 0.0303,-0.4275 0.2407,-0.6394 0.2254,-0.2271 0.3251,-0.0826 0.3251,-0.6179 0.1408,0.0943 0.2209,0.2515 0.3773,0.2515l0.2515 0c0.0592,0.2544 0.1881,0.5029 0.5029,0.5029l0.0629 0c0.7353,0 0.8173,-0.8002 0.8173,-1.5717 0.1861,-0.0984 0.7656,-0.4724 0.8416,-0.6673 0.1041,-0.2671 -0.0175,-0.3631 0.1779,-0.5765 0.1648,-0.1799 0.3008,-0.1129 0.3008,-0.4536l0 -0.503 0.9431 0c0.2404,0 0.0229,-0.0192 0.1886,0.0629 -0.2958,0.4418 -0.8802,0.4057 -0.8802,0.943 0,0.2789 0.2365,0.943 0.6287,0.943l0.1887 0c0.2166,0 0.3254,-0.0888 0.4401,-0.1886 0.0794,0.0421 0.2078,0.1258 0.3143,0.1258 0.0766,0 0.1886,-0.1301 0.1886,-0.2515l0 -0.1257c0,-0.2801 -0.2514,-0.0972 -0.2514,-0.3772l0 -0.1258c0,-0.2937 0.3133,-0.1473 0.4401,-0.6915 0.2668,0.0712 0.1099,0.1257 0.3143,0.1257 0.1918,0 0.2537,-0.0604 0.3772,-0.1257 0.0051,0.2281 0.0276,0.3772 0.2515,0.3772l0.1258 0c0.1466,0 0.3143,-0.1678 0.3143,-0.3143l-0.0006 -1.1347 0.3779 -0.0598 0 0.5658c0,0.2698 0.7072,0.2029 1.0077,0.2497 0.1595,0.0248 0.8772,0.2915 0.9413,0.379 -0.2275,0.0607 -0.3772,0.2193 -0.3772,0.5029l0 0.1886c0,0.2037 0.2732,0.3772 0.5029,0.3772 0.3571,0 0.0909,-0.5029 0.6288,-0.5029l0.1976 0.0039 -0.1976 0.5619c0.6908,0.1609 0.8955,0.2522 1.1941,0.8282l4.9044 0.1777 0 -3.2692 1.1317 0c0.2543,0 0.2487,-0.3143 0.503,-0.3143 0.3913,0 0.4754,0.1886 0.6287,0.1886l0.2515 0c0.6604,0 0.3414,-0.8801 0.8173,-0.8801 0.2747,0 0.2284,0.1257 0.503,0.1257l0.1257 0c0.1099,0 0.4401,-0.2247 0.4401,-0.3143 0,-0.3041 -0.1551,-0.0164 -0.2514,-0.3773l0.5029 0c0.0931,0.3997 0.4307,0.9057 0.8553,0.9402l-0.0379 0.4429c0.2283,0.1529 0.8156,0.3968 0.9471,0.6247 0.258,0.4474 -0.0962,0.6285 0.6247,1.0099 -0.1329,0.1813 -0.3144,0.1558 -0.3144,0.3772l0 0.0629c0,0.1409 0.0498,0.138 0.1257,0.2514 0.2319,0 0.4401,-0.0556 0.4401,0.1886l0 0.1886c0,0.1801 -0.2514,0.2963 -0.2514,0.6287l0 0.2515c0,0.1409 0.0497,0.138 0.1283,0.2354l0.4375 0.0789c-0.0085,0.3817 -0.2515,0.6819 -0.2515,0.6916 0,0.1471 0.1043,0.2514 0.2515,0.2514l0.503 0c0.3979,0 0.4661,-0.1886 0.7544,-0.1886l0.5659 0c0.0587,0 0.5802,0.2838 0.6422,0.3638 0.117,0.1511 0.3355,0.5164 0.5524,0.5164l0.8802 0c0.0359,0.1544 0.0801,0.5029 0.2515,0.5029 0.2808,0 0.467,-0.1886 0.6287,-0.1886 0.1223,0 0.6226,0.3772 0.943,0.3772l1.006 0 0 0.1258 0.1926 -0.0007 0.1218 0.9437c0.0676,0.0179 0.1713,0.0646 0.1898,0.0755l0.9161 -0.0657 0.1556 -0.7561 0.9528 -0.4474 -0.0767 1.508c-0.0133,0.2213 0.5658,0.1311 0.5663,1.1309l0.2599 0.1276 -0.0717 0.6904c0.2668,0.0713 0.11,0.1258 0.3143,0.1258l0.1258 0c0.2087,0 0.3022,-0.2356 0.3772,-0.3772 0.4761,-0.0107 1.2199,-1.0688 1.949,-1.0688l0 0.1886c0,0.4278 1.1648,0.2746 1.4461,0.1257 0.5691,0.3012 0.3487,0.8173 0.6916,0.8173 0.1918,0 0.2537,-0.0604 0.3772,-0.1257l0 -0.943c0.2731,-0.4078 0.4217,-0.0869 0.5439,-0.6507 0.0447,-0.2063 -0.0083,-0.3968 0.045,-0.5836 0.0573,-0.2006 0.1655,-0.2066 0.1655,-0.4632l0 -0.0628c0,-0.4018 -0.1257,-0.4784 -0.1257,-0.8802l0 -0.2514c0,-0.1449 0.0438,-0.1887 0.1886,-0.1887l0.1809 0.0025 0.0706 0.249 0.1886 0c0.2678,0 0.3629,-0.5877 0.6439,-0.865 0.3877,-0.3826 0.4878,-0.3032 0.4878,-1.021 0.1235,-0.0654 0.1854,-0.1257 0.3772,-0.1257l0.3144 0c0.0374,0.14 0.0147,0.1886 0.1886,0.1886l0.2515 0c0.6769,0 0.9724,-0.6574 1.3832,-0.6916 0.0863,0.3703 -0.0085,1.1945 0.3772,1.1945l0.7545 0c0.1472,0 0.2515,-0.1043 0.2515,-0.2515l0 -0.3143 0.0638 -0.0499 1.2565 1.5587 1.446 0c0.5991,0.8946 0.186,0.8802 1.685,0.8927l0.1261 0.1146 0.0751 0.753c0.0385,0.3315 -0.3773,0.3227 -0.3773,0.5658 0,0.2935 0.1467,0.4401 0.4402,0.4401 0.1409,0 0.138,-0.0498 0.2514,-0.1257 0.0889,0.044 0.1044,0.0628 0.2515,0.0628l0.0629 0c0.191,0 0.2135,-0.109 0.2774,-0.2951l0.3894 0.231 -0.0381 0.0641c-0.1401,0.0374 -0.1886,0.0147 -0.1886,0.1886 0,0.1739 0.0485,0.1512 0.1886,0.1886 -0.0672,0.2519 -0.2515,0.328 -0.2515,0.6287l0 0.1886c0,0.1463 0.4447,0.503 0.5659,0.503 0.2043,0 0.0474,-0.0545 0.3143,-0.1258l0 -0.3143c0,-0.4565 -0.2158,-1.0404 0.1258,-1.1316 -0.0215,0.2583 -0.0629,0.1404 -0.0629,0.3772 0,0.0162 0.3346,0.3772 0.3772,0.3772 0.5207,0 0.7545,-0.4206 0.7545,-1.0059 0.1235,-0.0654 0.1854,-0.1257 0.3772,-0.1257 0.2057,0 0.1656,0.1886 0.503,0.1886 0.2704,0 0.3408,-0.0733 0.5659,-0.1258 -0.0352,0.0506 -0.1258,0.1552 -0.1258,0.1886 0,0.2184 0.1258,0.096 0.1258,0.3144l0 0.3143 0.2514 0c0.3304,0 0.3773,-0.7027 0.3773,-1.0687 0.225,-0.0525 0.2954,-0.1258 0.5658,-0.1258l0.3144 0c-0.0512,0.2196 -0.1258,0.2117 -0.1258,0.4401l0 0.0629c0,0.4394 0.4406,1.0893 0.6969,1.2772l0.7903 -0.1949 0.1475 0.2379c0.5419,0 1.1288,-0.0569 1.4314,0.2032 0.3011,0.2589 0.5461,0.5512 1.0835,0.5512l0.5029 0c-0.0278,0.3343 -0.3143,0.2435 -0.3143,0.5029 0,0.2149 0.3635,0.4401 0.503,0.4401l0.0628 0c0.4287,0 0.019,-0.5029 0.6288,-0.5029l0.3143 0c0.0196,-0.0738 0.0629,-0.1714 0.0629,-0.1886 0,-0.5876 -0.0841,-1.0059 0.6916,-1.0059 0.1597,0 0.2755,0.5251 0.3143,0.6915 0.2544,0.0593 0.6288,0.1453 0.6288,0.4401 0,0.1681 -0.0908,0.1859 -0.1887,0.2515l0 0.3143c-0.2023,0.1355 -0.3512,0.1886 -0.6916,0.1886l-0.4662 0.0199 0.2776 0.4202 -0.8173 0c-0.038,-0.1424 -0.0605,-0.2515 -0.2515,-0.2515l-0.0629 0c-0.2043,0 -0.0474,0.0545 -0.3143,0.1258l0 0.1886c0,0.2862 0.3143,0.1028 0.302,0.8568l0.6285 0.1616 0.1029 0.1228 0.224 0.7448 0.5659 0c-0.1772,0.2645 -0.3773,0.217 -0.3773,0.5658l0 0.1257c0,0.1698 0.0301,0.1734 0.0629,0.3144 0.0737,0.0195 0.1714,0.0628 0.1886,0.0628 0.2037,0 0.3764,-0.257 0.696,-0.3099 0.5028,-0.0831 0.6138,-0.3187 0.7501,-0.3187l0.3143 0c0.548,0 0.6916,0.663 0.6916,1.2573 0.1667,0.1116 0.5054,0.2545 0.6063,0.3997 0.1202,0.173 0.2261,0.5433 0.4625,0.5433l0.0629 0c0.3427,0 0.5132,-0.5855 0.6021,-0.9068 0.1606,-0.5806 0.6553,-0.4913 0.6553,-0.9163 0,-0.2837 -0.2555,-0.2024 -0.2531,-0.8157 0.0015,-0.3644 0.0605,-0.7403 -0.1097,-0.959 -0.2779,-0.357 -0.5174,-1.0368 -0.5174,-1.6202 0,-0.0969 0.2515,-0.2175 0.2515,-0.3143 0,-0.6267 -0.6916,-1.7445 -0.6916,-2.2004 0,-0.3971 0.7251,-1.4717 0.588,-2.4554l-0.1479 -1.0023c-0.0181,-0.1117 0.0649,-0.1606 0.1258,-0.2515 0.7025,0 0.4022,-0.286 0.9288,-0.8316 0.315,-0.3263 0.5172,-0.6852 0.5172,-1.3059 0.1776,-0.1189 0.3773,-0.337 0.3773,-0.6287l0.0142 -0.3161 -0.0771 -0.6898c0.1882,-0.126 0.3772,-0.1823 0.3772,-0.5029l0 -0.0629c0,-0.2184 -0.1257,-0.0959 -0.1257,-0.3143l0 -0.5029c0,-0.4643 0.3143,-0.7651 0.3143,-1.1317 0,-0.1698 -0.03,-0.1733 -0.0628,-0.3143 -0.4718,0.0105 -0.4894,0.3772 -1.0689,0.3772l-0.1257 0c-0.293,0 -0.1505,-0.346 -0.503,-0.4401 0,-0.6063 -0.4048,-1.3376 -0.7544,-1.5717 0,-0.4183 -0.1699,-0.6286 -0.5659,-0.6286l-0.1257 0c-0.3618,0 -0.5188,0.1886 -0.6916,0.1886 -0.202,0 -0.0837,-0.6004 -0.3165,-0.5798l-0.5637 0.0768c0.0087,-0.3918 0.1886,-0.303 0.1886,-0.7544l0.0037 -0.2419 -1.4497 -0.0724c-0.1729,-0.1158 -0.3144,-0.1446 -0.3144,-0.4401l0.0052 -0.5917 1.5666 -0.2256c0.2621,-0.037 1.222,0.2164 1.1433,-0.4417l-0.0284 -0.2393z"/>
   <path id="_83412048" class="fil2" d="M9.8125 29.1166l57.7774 0 -0.0461 -0.3877c0.1135,-0.076 0.1105,-0.1258 0.2515,-0.1258l0.2474 0.0445 1.944 0.1366 0.1348 -0.1811c-0.0653,-0.1235 -0.1257,-0.1854 -0.1257,-0.3772 0,-0.2644 0.5092,-0.4401 0.8173,-0.4401 0.047,-0.07 0.1886,-0.2114 0.1886,-0.2514 0,-0.3417 -0.1178,-0.3383 -0.0962,-0.6388l0.7623 -0.4261 -0.0373 -0.0667c0.1134,0.0759 0.1105,0.1257 0.2515,0.1257 0.1893,0 0.417,-0.3316 0.8776,-0.3798 0.2682,-0.028 0.8828,-0.0971 0.8828,-0.3746l0 -0.1258c0,-0.2312 -0.1886,-0.1459 -0.1886,-0.3772l0 -0.0628c0,-0.0807 0.0383,-0.2022 0.0856,-0.325l-65.5163 0 -0.008 0.0216c-0.1933,0.501 -0.8972,0.3131 -0.954,0.9949 -0.292,-0.068 -0.5419,-0.5658 -0.6916,-0.5658 -0.2104,0 -0.7544,0.3994 -0.7544,0.5658 0,0.4491 0.2515,0.2136 0.2515,0.503l0 0.8172c0,0.4382 -0.503,0.6326 -0.503,0.8802 0,0.1448 0.0437,0.1886 0.1886,0.1886l0.5658 0c0.4327,0 1.0689,-0.3435 1.0689,-0.6916l0 -0.3143c0,-0.2167 -0.0465,-0.2434 -0.0629,-0.4401l0.0632 -0.0214 0.314 1.0902 0.1886 0c0.2559,0 0.3382,-0.0993 0.4509,-0.2534l-0.1994 -1.0668 0.4401 0c0.1329,0 0.2998,0.2993 0.5659,0.44 0.0072,0.3251 0.0774,0.3523 0.3772,0.3772 -0.0308,0.3703 -0.1257,0.1311 -0.1257,0.3772l0 0.1258c0,0.2802 0.272,0.252 0.4325,0.3224 0.2736,0.12 0.0704,0.308 0.0704,0.6206 0,0.1236 0.0532,0.1906 0.1108,0.262z"/>
  </g>
  <path class="fil3 str0" d="M77.2889 19.173l0 0.2514c-0.1918,0.2208 -0.5401,0.4921 -0.7039,0.7422 -0.3776,0.5767 0.0356,0.314 -0.601,0.8449 -0.4157,0.3466 -1.3357,0.881 -1.3357,1.5563 -0.2968,0.0692 -0.6287,0.1994 -0.6287,0.5658 0,0.1408 0.0721,0.1898 0.1257,0.2515 -0.0389,0.0582 -0.1257,0.1511 -0.1257,0.1886 0,0.1721 0.1257,0.2051 0.1257,0.3772 0,0.1167 -0.3206,0.2148 -0.4497,0.5562 -0.0563,0.1489 -0.2418,0.5242 -0.2418,0.7012l0 0.0628c0,0.2313 0.1886,0.146 0.1886,0.3772l0 0.1258c0,0.2775 -0.6146,0.3466 -0.8828,0.3746 -0.4606,0.0482 -0.6883,0.3798 -0.8776,0.3798 -0.141,0 -0.1381,-0.0498 -0.2515,-0.1257l0.0373 0.0667 -0.7623 0.4261c-0.0216,0.3005 0.0962,0.2971 0.0962,0.6388 0,0.04 -0.1416,0.1814 -0.1886,0.2514 -0.3081,0 -0.8173,0.1757 -0.8173,0.4401 0,0.1918 0.0604,0.2537 0.1257,0.3772l-0.1348 0.1811 -1.944 -0.1366 -0.2474 -0.0445c-0.141,0 -0.138,0.0498 -0.2515,0.1258l0.0745 0.627c0.0787,0.6581 -0.8812,0.4047 -1.1433,0.4417l-1.5666 0.2256 -0.0052 0.5917c0,0.2955 0.1415,0.3243 0.3144,0.4401l1.4497 0.0724 -0.0037 0.2419c0,0.4514 -0.1799,0.3626 -0.1886,0.7544l0.5637 -0.0768c0.2328,-0.0206 0.1145,0.5798 0.3165,0.5798 0.1728,0 0.3298,-0.1886 0.6916,-0.1886l0.1257 0c0.396,0 0.5659,0.2103 0.5659,0.6286 0.3496,0.2341 0.7544,0.9654 0.7544,1.5717 0.3525,0.0941 0.21,0.4401 0.503,0.4401l0.1257 0c0.5795,0 0.5971,-0.3667 1.0689,-0.3772 0.0328,0.141 0.0628,0.1445 0.0628,0.3143 0,0.3666 -0.3143,0.6674 -0.3143,1.1317l0 0.5029c0,0.2184 0.1257,0.0959 0.1257,0.3143l0 0.0629c0,0.3206 -0.189,0.3769 -0.3772,0.5029l0.0771 0.6898 -0.0142 0.3161c0,0.2917 -0.1997,0.5098 -0.3773,0.6287 0,0.6207 -0.2022,0.9796 -0.5172,1.3059 -0.5266,0.5456 -0.2263,0.8316 -0.9288,0.8316 -0.0609,0.0909 -0.1439,0.1398 -0.1258,0.2515l0.1479 1.0023c0.1371,0.9837 -0.588,2.0583 -0.588,2.4554 0,0.4559 0.6916,1.5737 0.6916,2.2004 0,0.0968 -0.2515,0.2174 -0.2515,0.3143 0,0.5834 0.2395,1.2632 0.5174,1.6202 0.1702,0.2187 0.1112,0.5946 0.1097,0.959 -0.0024,0.6133 0.2531,0.532 0.2531,0.8157 0,0.425 -0.4947,0.3357 -0.6553,0.9163 -0.0889,0.3213 -0.2594,0.9068 -0.6021,0.9068l-0.0629 0c-0.2364,0 -0.3423,-0.3703 -0.4625,-0.5433 -0.1009,-0.1452 -0.4396,-0.2881 -0.6063,-0.3997 0,-0.5943 -0.1436,-1.2573 -0.6916,-1.2573l-0.3143 0c-0.1363,0 -0.2473,0.2356 -0.7501,0.3187 -0.3196,0.0529 -0.4923,0.3099 -0.696,0.3099 -0.0172,0 -0.1149,-0.0433 -0.1886,-0.0628 -0.0328,-0.141 -0.0629,-0.1446 -0.0629,-0.3144l0 -0.1257c0,-0.3488 0.2001,-0.3013 0.3773,-0.5658l-0.5659 0 -0.224 -0.7448 -0.1029 -0.1228 -0.6285 -0.1616c0.0123,-0.754 -0.302,-0.5706 -0.302,-0.8568l0 -0.1886c0.2669,-0.0713 0.11,-0.1258 0.3143,-0.1258l0.0629 0c0.191,0 0.2135,0.1091 0.2515,0.2515l0.8173 0 -0.2776 -0.4202 0.4662 -0.0199c0.3404,0 0.4893,-0.0531 0.6916,-0.1886l0 -0.3143c0.0979,-0.0656 0.1887,-0.0834 0.1887,-0.2515 0,-0.2948 -0.3744,-0.3808 -0.6288,-0.4401 -0.0388,-0.1664 -0.1546,-0.6915 -0.3143,-0.6915 -0.7757,0 -0.6916,0.4183 -0.6916,1.0059 0,0.0172 -0.0433,0.1148 -0.0629,0.1886l-0.3143 0c-0.6098,0 -0.2001,0.5029 -0.6288,0.5029l-0.0628 0c-0.1395,0 -0.503,-0.2252 -0.503,-0.4401 0,-0.2594 0.2865,-0.1686 0.3143,-0.5029l-0.5029 0c-0.5374,0 -0.7824,-0.2923 -1.0835,-0.5512 -0.3026,-0.2601 -0.8895,-0.2032 -1.4314,-0.2032l-0.1475 -0.2379 -0.7903 0.1949c-0.2563,-0.1879 -0.6969,-0.8378 -0.6969,-1.2772l0 -0.0629c0,-0.2284 0.0746,-0.2205 0.1258,-0.4401l-0.3144 0c-0.2704,0 -0.3408,0.0733 -0.5658,0.1258 0,0.366 -0.0469,1.0687 -0.3773,1.0687l-0.2514 0 0 -0.3143c0,-0.2184 -0.1258,-0.096 -0.1258,-0.3144 0,-0.0334 0.0906,-0.138 0.1258,-0.1886 -0.2251,0.0525 -0.2955,0.1258 -0.5659,0.1258 -0.3374,0 -0.2973,-0.1886 -0.503,-0.1886 -0.1918,0 -0.2537,0.0603 -0.3772,0.1257 0,0.5853 -0.2338,1.0059 -0.7545,1.0059 -0.0426,0 -0.3772,-0.361 -0.3772,-0.3772 0,-0.2368 0.0414,-0.1189 0.0629,-0.3772 -0.3416,0.0912 -0.1258,0.6751 -0.1258,1.1316l0 0.3143c-0.2669,0.0713 -0.11,0.1258 -0.3143,0.1258 -0.1212,0 -0.5659,-0.3567 -0.5659,-0.503l0 -0.1886c0,-0.3007 0.1843,-0.3768 0.2515,-0.6287 -0.1401,-0.0374 -0.1886,-0.0147 -0.1886,-0.1886 0,-0.1739 0.0485,-0.1512 0.1886,-0.1886l0.0381 -0.0641 -0.3894 -0.231c-0.0639,0.1861 -0.0864,0.2951 -0.2774,0.2951l-0.0629 0c-0.1471,0 -0.1626,-0.0188 -0.2515,-0.0628 -0.1134,0.0759 -0.1105,0.1257 -0.2514,0.1257 -0.2935,0 -0.4402,-0.1466 -0.4402,-0.4401 0,-0.2431 0.4158,-0.2343 0.3773,-0.5658l-0.0751 -0.753 -0.1261 -0.1146c-1.499,-0.0125 -1.0859,0.0019 -1.685,-0.8927l-1.446 0 -1.2565 -1.5587 -0.0638 0.0499 0 0.3143c0,0.1472 -0.1043,0.2515 -0.2515,0.2515l-0.7545 0c-0.3857,0 -0.2909,-0.8242 -0.3772,-1.1945 -0.4108,0.0342 -0.7063,0.6916 -1.3832,0.6916l-0.2515 0c-0.1739,0 -0.1512,-0.0486 -0.1886,-0.1886l-0.3144 0c-0.1918,0 -0.2537,0.0603 -0.3772,0.1257 0,0.7178 -0.1001,0.6384 -0.4878,1.021 -0.281,0.2773 -0.3761,0.865 -0.6439,0.865l-0.1886 0 -0.0706 -0.249 -0.1809 -0.0025c-0.1448,0 -0.1886,0.0438 -0.1886,0.1887l0 0.2514c0,0.4018 0.1257,0.4784 0.1257,0.8802l0 0.0628c0,0.2566 -0.1082,0.2626 -0.1655,0.4632 -0.0533,0.1868 -0.0003,0.3773 -0.045,0.5836 -0.1222,0.5638 -0.2708,0.2429 -0.5439,0.6507l0 0.943c-0.1235,0.0653 -0.1854,0.1257 -0.3772,0.1257 -0.3429,0 -0.1225,-0.5161 -0.6916,-0.8173 -0.2813,0.1489 -1.4461,0.3021 -1.4461,-0.1257l0 -0.1886c-0.7291,0 -1.4729,1.0581 -1.949,1.0688 -0.075,0.1416 -0.1685,0.3772 -0.3772,0.3772l-0.1258 0c-0.2043,0 -0.0475,-0.0545 -0.3143,-0.1258l0.0717 -0.6904 -0.2599 -0.1276c-0.0005,-0.9998 -0.5796,-0.9096 -0.5663,-1.1309l0.0767 -1.508 -0.9528 0.4474 -0.1556 0.7561 -0.9161 0.0657c-0.0185,-0.0109 -0.1222,-0.0576 -0.1898,-0.0755l-0.1218 -0.9437 -0.1926 0.0007 0 -0.1258 -1.006 0c-0.3204,0 -0.8207,-0.3772 -0.943,-0.3772 -0.1617,0 -0.3479,0.1886 -0.6287,0.1886 -0.1714,0 -0.2156,-0.3485 -0.2515,-0.5029l-0.8802 0c-0.2169,0 -0.4354,-0.3653 -0.5524,-0.5164 -0.062,-0.08 -0.5835,-0.3638 -0.6422,-0.3638l-0.5659 0c-0.2883,0 -0.3565,0.1886 -0.7544,0.1886l-0.503 0c-0.1472,0 -0.2515,-0.1043 -0.2515,-0.2514 0,-0.0097 0.243,-0.3099 0.2515,-0.6916l-0.4375 -0.0789c-0.0786,-0.0974 -0.1283,-0.0945 -0.1283,-0.2354l0 -0.2515c0,-0.3324 0.2514,-0.4486 0.2514,-0.6287l0 -0.1886c0,-0.2442 -0.2082,-0.1886 -0.4401,-0.1886 -0.0759,-0.1134 -0.1257,-0.1105 -0.1257,-0.2514l0 -0.0629c0,-0.2214 0.1815,-0.1959 0.3144,-0.3772 -0.7209,-0.3814 -0.3667,-0.5625 -0.6247,-1.0099 -0.1315,-0.2279 -0.7188,-0.4718 -0.9471,-0.6247l0.0379 -0.4429c-0.4246,-0.0345 -0.7622,-0.5405 -0.8553,-0.9402l-0.5029 0c0.0963,0.3609 0.2514,0.0732 0.2514,0.3773 0,0.0896 -0.3302,0.3143 -0.4401,0.3143l-0.1257 0c-0.2746,0 -0.2283,-0.1257 -0.503,-0.1257 -0.4759,0 -0.1569,0.8801 -0.8173,0.8801l-0.2515 0c-0.1533,0 -0.2374,-0.1886 -0.6287,-0.1886 -0.2543,0 -0.2487,0.3143 -0.503,0.3143l-1.1317 0 0 3.2692 -4.9044 -0.1777c-0.2986,-0.576 -0.5033,-0.6673 -1.1941,-0.8282l0.1976 -0.5619 -0.1976 -0.0039c-0.5379,0 -0.2717,0.5029 -0.6288,0.5029 -0.2297,0 -0.5029,-0.1735 -0.5029,-0.3772l0 -0.1886c0,-0.2836 0.1497,-0.4422 0.3772,-0.5029 -0.0641,-0.0875 -0.7818,-0.3542 -0.9413,-0.379 -0.3005,-0.0468 -1.0077,0.0201 -1.0077,-0.2497l0 -0.5658 -0.3779 0.0598 0.0006 1.1347c0,0.1465 -0.1677,0.3143 -0.3143,0.3143l-0.1258 0c-0.2239,0 -0.2464,-0.1491 -0.2515,-0.3772 -0.1235,0.0653 -0.1854,0.1257 -0.3772,0.1257 -0.2044,0 -0.0475,-0.0545 -0.3143,-0.1257 -0.1268,0.5442 -0.4401,0.3978 -0.4401,0.6915l0 0.1258c0,0.28 0.2514,0.0971 0.2514,0.3772l0 0.1257c0,0.1214 -0.112,0.2515 -0.1886,0.2515 -0.1065,0 -0.2349,-0.0837 -0.3143,-0.1258 -0.1147,0.0998 -0.2235,0.1886 -0.4401,0.1886l-0.1887 0c-0.3922,0 -0.6287,-0.6641 -0.6287,-0.943 0,-0.5373 0.5844,-0.5012 0.8802,-0.943 -0.1657,-0.0821 0.0518,-0.0629 -0.1886,-0.0629l-0.9431 0 0 0.503c0,0.3407 -0.136,0.2737 -0.3008,0.4536 -0.1954,0.2134 -0.0738,0.3094 -0.1779,0.5765 -0.076,0.1949 -0.6555,0.5689 -0.8416,0.6673 0,0.7715 -0.082,1.5717 -0.8173,1.5717l-0.0629 0c-0.3148,0 -0.4437,-0.2485 -0.5029,-0.5029l-0.2515 0c-0.1564,0 -0.2365,-0.1572 -0.3773,-0.2515 0,0.5353 -0.0997,0.3908 -0.3251,0.6179 -0.2104,0.2119 -0.0172,0.6394 -0.2407,0.6394 -0.4699,0 -0.3569,-0.7347 -0.3748,-1.1968 -0.0173,-0.4432 -0.1282,-0.8776 -0.1282,-1.3807l0.1383 -0.1132 0.7727 -0.2499 -0.0308 -0.077c-0.0631,-0.1192 -0.3772,-0.5965 -0.3772,-0.6915 0,-0.3178 0.1012,-0.334 0.1257,-0.6287l-0.1257 0c-0.0538,0.2015 -0.314,0.3772 -0.5658,0.3772l-0.0629 0c-0.2119,0 -0.4401,-0.1111 -0.4401,-0.3144l0 -0.1257c0,-0.3054 0.6327,-0.5658 1.0059,-0.5658 0.076,-0.1135 0.1258,-0.1105 0.1258,-0.2515l0 -0.0628c0,-0.2091 -0.1129,-0.1842 -0.3144,-0.1886l0 -0.7544c0,-0.4495 0.1793,-0.6287 0.6287,-0.6287l0.3144 0c-0.0644,-0.2766 -0.5252,-0.8173 -0.1258,-0.8173l0.1258 0c0.3566,0 0.2906,0.6915 1.1317,0.6915 0.1465,0.0981 0.3282,0.2515 0.5658,0.2515l0.1886 0c0.3807,0 0.1043,-0.4017 0.5659,-0.4401 0.0671,0.2512 0.6384,0.8484 0.8173,0.9431 -0.0278,-0.3348 -0.1294,-0.1886 -0.1257,-0.3144l0.0426 -1.1932 0.146 -0.0013c0.6286,0 0.0003,1.5717 0.8802,1.5717l0.0629 0c0.1681,0 0.1859,-0.0907 0.2515,-0.1886l-0.6411 -0.1491c0.0123,-0.9414 -0.6493,-2.5542 0.5782,-2.5542l0.2515 0c0.3293,0 0.1221,0.3772 0.7544,0.3772l0.1886 0c0.2091,0 0.1842,-0.1129 0.1887,-0.3143l0.381 0.1824 0.6146 -0.7739 -0.0526 -0.0372c-0.2715,-0.0226 -0.2452,-0.0355 -0.2515,-0.3144 -0.2668,0.0713 -0.1099,0.1258 -0.3143,0.1258 -0.2004,0 -0.081,-0.4673 -0.1886,-0.6916l-0.251 0.1265 -0.0557 0.4406 -0.1963 -0.0013c-0.0305,-0.3668 -0.2515,-0.8123 -0.2515,-1.0058l0 -0.1886c0.3611,-0.0301 0.9363,-0.503 1.3203,-0.503l0.3144 0c0.1933,0 0.2515,0.1842 0.2515,0.3772l0 0.1886 0.2515 0c-0.0308,-0.3696 -0.2515,-0.4329 -0.2515,-0.7544l0 -0.1257c0,-0.3202 0.3143,-0.0571 0.3143,-0.3772l0 -0.1886c0,-0.3589 -0.2515,-0.3606 -0.2515,-0.6287 0,-0.3126 0.2032,-0.5006 -0.0704,-0.6206 -0.1605,-0.0704 -0.4325,-0.0422 -0.4325,-0.3224l0 -0.1258c0,-0.2461 0.0949,-0.0069 0.1257,-0.3772 -0.2998,-0.0249 -0.37,-0.0521 -0.3772,-0.3772 -0.2661,-0.1407 -0.433,-0.44 -0.5659,-0.44l-0.4401 0 0.1994 1.0668c-0.1127,0.1541 -0.195,0.2534 -0.4509,0.2534l-0.1886 0 -0.314 -1.0902 -0.0632 0.0214c0.0164,0.1967 0.0629,0.2234 0.0629,0.4401l0 0.3143c0,0.3481 -0.6362,0.6916 -1.0689,0.6916l-0.5658 0c-0.1449,0 -0.1886,-0.0438 -0.1886,-0.1886 0,-0.2476 0.503,-0.442 0.503,-0.8802l0 -0.8172c0,-0.2894 -0.2515,-0.0539 -0.2515,-0.503 0,-0.1664 0.544,-0.5658 0.7544,-0.5658 0.1497,0 0.3996,0.4978 0.6916,0.5658 0.0568,-0.6818 0.7607,-0.4939 0.954,-0.9949 0.0844,-0.2186 0.139,-0.5203 0.2849,-0.7211 0.2086,-0.2869 0.2072,-0.281 0.2072,-0.7358 0.1021,-0.1525 0.4401,-0.3727 0.4401,-0.5658l0 -0.3772 0.3189 0.116 1.3146 -0.0722 0.2666 -0.2185c-0.014,-0.3937 -0.0923,-0.4453 0.3004,-0.454l0 -0.1257 -0.623 -0.1481 -0.0057 -0.292 -0.817 0.0663c-0.0763,-0.1169 -0.1261,-0.114 -0.1261,-0.2549l0 -0.503c0,-0.3254 0.8728,-1.3202 0.9431,-1.3202 0.1471,0 0.2515,0.1043 0.2515,0.2515l0 0.3143 0.1257 0c0.006,-0.268 0.1321,-0.5658 0.3772,-0.5658 0.3021,0 0.3267,0.1886 0.6288,0.1886l0.3143 0 0 -1.1316c0,-0.0587 0.5125,-0.7544 0.6916,-0.7544l0.0629 0c0.2833,0 0.2165,0.3143 0.3772,0.3143 0.2318,0 0.2459,-0.1886 0.4401,-0.1886l0.2515 0c0.1698,0 0.1733,0.03 0.3144,0.0629l0 -0.1258 -0.508 -0.2434 0.005 -0.511 -0.3078 -0.1987c-0.0066,-0.3965 -0.1325,-1.1486 0.0437,-1.3225 0.0955,-0.0943 0.8648,-0.4905 1.0185,-0.4905l0.3773 0c0.2166,0 0.3254,0.0889 0.4401,0.1886l0.181 -0.1349c1.304,0.0091 1.7051,0.3273 1.7051,-0.9339 0.0653,-0.0975 0.1886,-0.2289 0.1886,-0.3772 0,-0.2981 -0.4401,-0.1422 -0.4401,-0.4401l0 -0.0628c0,-0.2197 0.3478,-0.3341 0.503,-0.5658 0,-0.3798 -0.0783,-0.4314 0.3144,-0.4401l0 0.5658c0.2111,0.0492 0.3456,0.0305 0.5557,0.073 0.2213,0.0447 0.2114,0.1785 0.3874,0.1785 0.1697,0 0.2514,-0.1674 0.2514,-0.3144 0,-0.1065 -0.0837,-0.2349 -0.1257,-0.3143 0.3543,-0.7384 -0.0047,-0.5413 0.7558,-1.0674 0.3637,-0.2516 0.5147,-0.5927 0.9417,-0.8186 0.01,-0.4462 0.2009,-0.5437 0.5659,-0.6287 0.1295,0.0867 0.1632,0.1886 0.3143,0.1886 0.0085,0 0.1246,-0.0619 0.1258,-0.0629l-0.1987 -0.3077 -1.3089 0.1912c-0.0667,-0.1327 -0.1271,-0.1946 -0.1271,-0.3864l0 -0.3144c0,-0.5157 1.0912,-0.5989 1.2459,-1.206 0.2248,-0.8823 -0.1922,-0.4953 0.5552,-0.7022 0.2566,-0.071 0.3366,-0.38 0.7138,-0.4807l0.077 0.3116c0.2795,-0.0038 0.4271,-0.0176 0.4888,-0.2488 -0.1424,-0.038 -0.2515,-0.0604 -0.2515,-0.2514l0 -0.0629c0,-0.193 0.0583,-0.3772 0.2515,-0.3772l0.0629 0c0.6121,0 0.3706,1.3605 1.3832,1.3831l0 -0.3144c0,-0.209 0.1129,-0.1841 0.3143,-0.1886l0 0.1886 0.1258 0 0.2651 -1.6956 0.175 -0.0018c-0.0106,-0.4754 -0.1886,-0.2232 -0.1886,-0.5029 0,-0.147 0.0818,-0.3144 0.2515,-0.3144 0.245,0 0.6916,0.0127 0.6916,0.2515l0 0.1257c0,0.3518 -0.3773,0.0255 -0.3773,0.3772l0 0.0629c0,0.1514 0.2259,0.3772 0.3773,0.3772l0.1886 0c0.1397,0 0.5658,-0.3568 0.5658,-0.5658 0,-0.2268 -0.1934,-0.3796 -0.2515,-0.6287l-0.2515 0 0 -0.3143 0.3138 0.0651 0.1355 -0.1833c0.7183,-0.0076 0.4328,-0.3848 0.9339,-0.3848l0.1258 0c0.1471,0 0.1626,0.0189 0.2515,0.0629 0.1235,-0.0653 0.1854,-0.1257 0.3772,-0.1257l0.4401 0c0.2119,0 0.4401,0.1111 0.4401,0.3143l0 0.503c0,0.218 -0.2287,0.3908 -0.4401,0.44l0 0.1886c0.5188,0.1209 0.4799,0.6287 0.7545,0.6287l0.0628 0c0.3031,0 0.4441,-0.1954 0.5659,-0.3772l0 -0.4401c0.1565,-0.2337 0.2998,-0.3772 0.6916,-0.3772l0.1886 0c0.1471,0 0.2515,0.1043 0.2515,0.2515 0,0.6549 -0.4876,0.2507 -0.503,0.943l1.0143 -0.4873c-0.0084,-0.803 0.1001,-0.9362 0.6421,-1.1884 0.1517,-0.0706 0.8585,-0.8308 0.8585,-0.9647 0,-0.233 -0.6092,-0.2556 -0.82,-0.3117 -0.3051,-0.0813 -0.7127,-0.4427 -0.2489,-0.4427l0.5659 0 0.079 -0.564c0.0633,-0.0439 0.1917,-0.1276 0.2982,-0.1276 0.3611,0 0.5072,0.2515 0.9431,0.2515l0.0629 0c0.1471,0 0.2514,-0.1043 0.2514,-0.2515 0,-0.0811 -0.1798,-0.1091 -0.1886,-0.5029l0.3144 0c0.4277,0 1.2574,0.9743 1.2574,1.4459 0.2756,-0.0642 0.3709,-0.2514 0.5659,-0.2514 0.0881,0 0.1257,0.0857 0.1257,0.1886 0,0.3144 -0.503,0.712 -0.503,0.8801 0,0.4492 0.9431,0.6087 0.9431,1.0059 0,0.245 -0.5029,0.3429 -0.5029,0.6287 0,0.124 0.2514,0.1556 0.2514,0.3772 0,0.2167 -0.0465,0.2434 -0.0628,0.44l0.6273 0.5045c0.2605,-0.0015 0.5044,-0.0785 0.5044,0.1871 0,0.1855 -0.1515,0.5684 -0.3773,0.6287 0.0657,0.246 0.251,0.2514 0.5659,0.2514l0.1906 0.313c0.4317,0.0014 0.6315,0.1271 0.7524,0.1271 0.3047,0 0.6916,-0.3018 0.6916,-0.6915 0,-0.1524 -0.5029,-0.2711 -0.5029,-0.943l0.3143 0c0.3383,0 1.1317,0.3902 1.1317,0.7544l0 0.0628c0,0.141 -0.0497,0.138 -0.1257,0.2515l0.1841 0.0746 0.0816 0.678c0.1244,0.0752 0.2372,0.0567 0.2372,0.2533l0 0.1257c0,0.347 -0.5109,0.2942 -0.7544,0.7544 0.1692,0.231 0.2412,0.0668 0.2514,0.5031 0.0084,0.3584 -0.0482,0.357 0.3119,0.3796 0.8226,0.0518 0.5035,0.0333 1.1971,-0.1283 0.145,0.2741 0.1469,0.6564 0.1834,1.0111 0.0799,0.7758 -0.0492,0.4349 0.6339,0.4349 0.0334,0 0.138,0.0906 0.1886,0.1257 0.1473,-0.0343 0.1858,-0.0628 0.3773,-0.0628l0.1257 0c0.5436,0 0.4794,0.5951 0.7545,1.0059 1.022,0 0.6357,0.2522 1.4201,-0.2775 0.5879,-0.397 0.3343,-0.5398 1.2834,-0.5398l0.3341 -0.3613 0.544 0.0609c0.046,-0.0074 0.5184,-0.3085 0.7565,-0.3283 0.0329,0.141 0.0629,0.1445 0.0629,0.3143l0 0.3772c0,0.2959 -0.195,0.4505 -0.3144,0.6287 -0.2656,0 -1.2002,0.4394 -1.3721,0.5769 -0.2694,0.2155 -0.9541,0.6253 -0.9541,0.9948l0 0.3144c0,0.3957 0.3036,1.1944 0.6287,1.1944 0.0334,0 0.138,-0.0905 0.1886,-0.1257 0.8559,0 0.6901,-0.5029 1.006,-0.5029 0.1463,0 0.1343,0.2836 0.5029,0.3143 0.0799,-0.2207 0.2667,-0.2515 0.5659,-0.2515 0.0051,0.2282 0.0276,0.3772 0.2515,0.3772 0.2953,0 -0.0667,-0.6286 0.3143,-0.6286l0.0629 0c0.1472,0 0.2515,0.1043 0.2515,0.2514 0,0.2168 -0.0465,0.2435 -0.0629,0.4401 0.2128,0.0568 0.3144,0.1729 0.3144,0.4401l0 0.3143c0.4081,-0.109 0.1134,-0.6287 1.1317,-0.6287 0.4742,-0.3175 0.5277,-1.0058 0.8173,-1.0058 0.1038,0 0.0961,0.2048 0.3833,0.3083 0.2527,0.0911 0.2268,0.0559 0.434,0.1946l0.3773 0 0.1519 1.0665c0.0873,0.0782 0.0843,0.128 0.2253,0.128l0.0629 0c0.1701,0 1.1945,-1.003 1.1945,-1.1316l0 -0.1886c-0.2171,-0.0181 -0.4401,-0.1606 -0.4401,-0.3772l0 -0.0629c0,-0.2843 0.3674,-0.6897 0.3773,-1.1316 -0.1089,0.0729 -0.3144,0.238 -0.3144,-0.0629l0 -0.1886 0.2515 0 0 -0.1886c0,-0.193 0.0582,-0.3772 0.2515,-0.3772 0.0786,0 0.2055,0.2457 0.2515,0.3143 0.524,0 0.9431,0.0375 0.9431,0.5658l0 0.3144 0.0298 0.0581 0.7249 -0.372 0.1385 0.3714c0.1645,-0.0094 0.2384,0.0068 0.2384,-0.1833l0 -0.0628c0,-0.3008 -0.3772,-0.1429 -0.3772,-0.6916 0,-0.1329 0.0225,-0.0829 0.0629,-0.2514l0.2515 0c0.1966,0 0.1781,0.1128 0.2515,0.2514 0.934,0 0.4813,0.1691 0.8456,0.3489 0.6871,0.3391 0.0708,0.2395 0.6004,0.5941 0.5478,0 0.6886,0.2038 0.8802,0.5659l0.5638 0.0768c-0.0085,-0.4874 -0.3752,-0.4021 -0.3752,-0.8941l0 -0.0629c0,-0.2746 0.1258,-0.2283 0.1258,-0.5029l0 -0.7544c0,-0.6098 -0.503,-0.8802 -0.503,-1.3203 0,-0.1329 0.0225,-0.0829 0.0629,-0.2514l0.1886 0c0.3429,0 0.3988,0.8172 0.7544,0.8172 0.3105,0 0.6266,-0.1862 0.7545,-0.3772 -0.1305,-0.1948 -0.3144,-0.2004 -0.3144,-0.44 0,-0.1576 0.2515,-0.2539 0.2515,-0.4401 0,-0.3527 -0.515,-0.657 -0.7544,-0.8173l-0.8801 -0.0637 -0.0001 -0.1878 -1.2515 0.2233c-0.1252,-0.0141 -0.1909,-0.0674 -0.3203,-0.0975l0 -0.3144c-0.1401,-0.0374 -0.1886,-0.0147 -0.1886,-0.1886l0 -0.0628c0,-0.2231 0.1257,-0.0374 0.1257,-0.503 0.1295,-0.0867 0.1632,-0.1886 0.3144,-0.1886l0.1886 0c0.2498,0 0.1903,0.2515 0.4401,0.2515l0.0629 0c0.1918,0 0.2537,-0.0604 0.3772,-0.1257l0 -0.503 0.2479 -0.0766c0.0128,-0.4025 0.2237,-0.4024 0.5065,-0.5521 -0.0759,-0.1134 -0.1257,-0.1105 -0.1257,-0.2514 0,-0.1235 0.4707,-0.8173 0.8173,-0.8173 0.1804,0 0.1258,0.3767 0.1258,0.5658l0.301 0.1539 -0.0205 -0.0929 0.4488 -0.2348c-0.026,-0.1715 -0.1006,-0.1636 -0.1006,-0.392l0 -0.0629c0,-0.2113 0.1633,-0.497 0.2515,-0.6287 0,-0.5822 0.4685,-0.6915 -0.6916,-0.6915 -0.076,-0.1135 -0.1258,-0.1105 -0.1258,-0.2515 0,-0.2901 0.283,-0.4401 0.6288,-0.4401l0.181 -0.1348 0.5713 0.0859c0.0358,-0.0089 0.4542,-0.2025 0.6937,-0.2025l0.1886 0c0.1449,0 0.1887,0.0437 0.1887,0.1886l0 0.2514 0.5027 0.0644 0.0002 0.25c0,0.2063 -0.1268,0.2359 -0.3143,0.2515l0.0768 0.5637c0.0142,0.1898 -0.2813,0.3686 -0.3912,0.4421l-0.3143 0 -0.1132 0.1383c-0.0126,0.6502 -0.6399,0.7597 -0.5784,1.1191l0.143 0.9401c0.0015,0.1125 -0.2445,0.2142 -0.2688,0.5059 0.279,0 0.5659,0.053 0.5659,0.3143 0,0.1918 -0.0604,0.2537 -0.1258,0.3772l-0.2418 -0.1993c-0.0918,0.1764 -0.0725,-0.0411 -0.0725,0.1993 0,0.2497 0.2514,0.1903 0.2514,0.4401l0 0.0628c0,0.2313 -0.1886,0.146 -0.1886,0.3772l0 0.0629c0,0.1678 0.4068,0.3772 0.503,0.3772l0.5659 0c0.191,0 0.2134,-0.109 0.2514,-0.2515l0.3773 0 0.0072 0.6919c0.2132,-0.1618 0.2266,-0.4404 0.6215,-0.4404l0.1886 0c0.2249,0 0.3772,0.6146 0.3772,0.8802 0.1597,0.1069 0.3511,0.1278 0.4266,0.2021 0.1441,0.142 -0.0001,0.3008 0.265,0.3008 0.141,0 0.138,-0.0497 0.2515,-0.1257 0,-0.5461 0.1886,-0.4979 0.1886,-0.943 0,-0.5981 -0.3374,-0.8173 -0.943,-0.8173 -0.1073,-0.0718 -0.2515,-0.1368 -0.2515,-0.3144l0 -0.1886c0,-0.3238 0.6545,-0.6033 0.8802,-0.7544l1.0084 -0.1086c0.0302,-0.0218 0.1858,0.1292 0.249,0.1715 0,0.3061 -0.0614,0.2756 0.1342,0.3688 0.0436,0.0207 0.3675,0.1341 0.3688,0.1341 0.3432,0 0.3483,-0.1257 0.6916,-0.1257l0.3772 0c-0.0276,0.3322 -0.1886,0.3616 -0.1886,0.7544l0 0.4401c0,0.371 0.4401,0.2051 0.4401,0.5029 0,0.0025 -0.6289,1.0688 -0.7545,1.0688l-0.1257 0 -0.5647 -0.0704 -0.0639 0.0063 -0.0282 1.5095c0.025,0.1626 -0.4211,0.3988 -0.6007,0.4406l0 0.2515c0,0.3815 -0.236,0.5029 -0.6287,0.5029l0.1841 0.8813c-0.2538,0.0204 -0.1359,0.0617 -0.3727,0.0617 -0.345,0 -0.4964,-0.1284 -0.7544,-0.1886 -0.0084,0.3767 -0.1258,0.2745 -0.1258,0.5658 0,0.147 0.0818,0.3144 0.2515,0.3144l0.1886 0 -0.0598 0.3778c0.0729,0.1129 0.1227,0.1099 0.1227,0.2509l0 0.2514 0.2515 0c0.4036,0 0.7795,-0.1615 1.089,-0.2941 0.4253,-0.1821 0.6274,-0.192 1.0422,-0.341 0.4291,-0.1541 0.4913,-0.4364 0.8481,-0.535 0.1679,-0.0464 1.0385,-0.2758 1.0445,-0.2758l0.4401 0c0.0926,0 0.5499,0.4298 0.9479,0.4981 0.2238,0.0384 1.0623,0.3192 1.064,0.3192l0.3772 0 0.0791 0.5007c0.0972,0.0782 0.0943,0.1279 0.2353,0.1279l0.3143 0c0,0.5008 -0.1886,0.419 -0.1886,0.6287l0 0.1886c0.2194,-0.0049 0.8764,-0.2156 0.9998,-0.1835 0.2784,0.0724 0.0261,0.2855 0.1784,0.4473 0.0848,0.0901 0.1347,-0.0752 0.3936,-0.0752 0.2673,0 0.1342,0.3398 0.4887,0.5801 0.249,0.1688 0.4319,0.2319 0.5172,0.5515 0.3673,-0.0305 0.3053,-0.1886 0.503,-0.1886l0.2515 0c0.1795,0 0.2826,0.2056 0.3772,0.3144z"/>
 </g>
</svg>
