<?xml version="1.0" standalone="no"?>
<!DOCTYPE svg PUBLIC "-//W3C//DTD SVG 20010904//EN"
 "http://www.w3.org/TR/2001/REC-SVG-20010904/DTD/svg10.dtd">
<svg version="1.0" xmlns="http://www.w3.org/2000/svg"
 width="1180.000000pt" height="1180.000000pt" viewBox="0 0 1180.000000 1180.000000"
 preserveAspectRatio="xMidYMid meet">
<metadata>
Created by potrace 1.11, written by Peter Selinger 2001-2013
</metadata>
<g transform="translate(0.000000,1180.000000) scale(0.100000,-0.100000)"
fill="#000000" stroke="none">
<path d="M5205 9802 c-9 -9 -5 -36 8 -62 28 -53 1 -62 -85 -30 -83 30 -138 15
-138 -39 0 -36 -10 -47 -45 -45 -30 1 -85 -14 -85 -23 0 -26 60 -73 100 -79
42 -5 86 -16 93 -23 11 -11 -98 -127 -144 -153 -50 -28 -70 -59 -78 -122 -6
-48 -8 -52 -51 -73 -53 -26 -86 -30 -55 -7 50 37 55 44 55 84 0 49 -20 62 -91
59 -64 -3 -112 -45 -107 -94 3 -40 -21 -73 -58 -81 -27 -5 -33 -1 -58 35 -16
23 -35 41 -42 41 -22 0 -16 17 12 37 21 16 28 30 32 71 9 101 -19 131 -120
125 -29 -2 -81 -5 -115 -7 -49 -3 -69 -9 -94 -30 -17 -14 -37 -26 -45 -26 -9
0 -25 -5 -37 -12 -12 -7 -33 -12 -47 -13 -22 0 -25 -4 -25 -35 0 -29 4 -36 23
-38 12 -2 22 -9 22 -16 0 -8 7 -19 15 -26 33 -28 -20 -110 -72 -110 -27 0 -69
50 -51 61 7 4 15 6 19 3 12 -7 32 25 32 53 0 39 -35 63 -94 63 -40 0 -51 -4
-65 -25 -16 -24 -12 -63 8 -76 5 -3 3 -12 -5 -21 -8 -7 -17 -34 -20 -58 -4
-25 -9 -57 -12 -71 -2 -14 -6 -41 -9 -60 -2 -26 -9 -35 -29 -40 -14 -4 -28 -5
-31 -2 -2 3 -10 -13 -16 -36 -9 -35 -14 -40 -28 -32 -28 15 -48 43 -81 111
-17 36 -39 71 -48 78 -25 18 -79 15 -89 -5 -16 -37 -15 -80 1 -97 15 -15 15
-17 0 -22 -17 -7 -38 13 -29 27 2 4 -3 10 -12 13 -14 5 -77 -31 -94 -55 -3 -4
-27 -13 -55 -21 -42 -11 -50 -17 -52 -40 -5 -76 -21 -103 -80 -138 -31 -19
-67 -45 -79 -56 -13 -12 -25 -19 -28 -16 -3 3 -7 -1 -7 -9 -1 -8 -3 -30 -5
-49 -5 -41 15 -110 30 -109 6 0 33 4 59 8 l48 8 -21 -22 c-11 -12 -20 -29 -20
-39 0 -18 -93 -110 -175 -172 -23 -18 -47 -45 -53 -61 -5 -15 -13 -37 -18 -48
-13 -35 -13 -49 -2 -62 5 -7 7 -24 4 -37 l-6 -25 -46 20 c-25 11 -52 18 -59
15 -19 -7 -34 15 -37 53 -3 38 -19 48 -52 33 -16 -7 -23 -19 -24 -42 -1 -28
-16 -48 -63 -80 -7 -5 -12 -34 -10 -61 0 -9 15 -22 31 -29 34 -14 35 -20 17
-58 -8 -15 -15 -45 -16 -67 -4 -73 -24 -88 -111 -87 -33 0 -120 1 -145 2 -11
0 -50 3 -86 6 -61 6 -70 4 -135 -29 -39 -19 -76 -43 -84 -52 -9 -11 -13 -43
-12 -108 2 -83 4 -93 28 -118 16 -17 24 -34 21 -43 -4 -9 -2 -16 3 -16 5 0 7
-6 4 -14 -3 -8 -1 -17 5 -21 18 -11 12 -25 -10 -25 -11 0 -28 -7 -37 -16 -14
-15 -17 -14 -35 10 -31 43 -66 35 -122 -26 l-48 -53 -2 -83 c-1 -45 -6 -87
-11 -92 -5 -5 -26 -2 -49 6 -52 20 -93 19 -115 -1 -12 -11 -20 -13 -25 -6 -3
6 -15 16 -25 21 -16 9 -26 4 -59 -29 -22 -22 -57 -66 -78 -97 -31 -47 -38 -66
-39 -113 -1 -33 4 -65 12 -78 12 -19 21 -22 69 -18 52 4 57 2 65 -20 7 -18 17
-25 36 -25 21 0 25 -3 19 -17 -5 -10 -9 -28 -10 -40 -3 -37 -22 -49 -82 -53
-95 -5 -157 -3 -180 5 -21 7 -23 4 -23 -33 0 -33 -7 -48 -31 -73 -21 -22 -33
-45 -37 -73 -2 -23 -12 -52 -22 -66 -9 -14 -22 -41 -30 -60 -32 -86 -41 -97
-86 -116 -24 -10 -44 -21 -44 -24 -1 -3 -10 -16 -21 -29 l-20 -24 -40 41 c-42
42 -56 44 -91 14 -10 -8 -18 -11 -18 -7 0 5 -16 -8 -35 -29 -28 -31 -34 -43
-28 -65 3 -14 12 -30 20 -36 9 -7 14 -36 15 -87 1 -74 0 -78 -35 -124 -40 -51
-47 -88 -20 -102 27 -14 144 -6 188 12 46 20 95 63 95 85 0 29 14 -1 19 -40 1
-4 18 -5 39 -4 49 3 46 2 69 23 19 16 21 31 10 77 -18 79 -18 92 2 98 25 6 96
-53 105 -87 3 -14 15 -28 26 -31 22 -7 24 -13 11 -33 -4 -8 -5 -27 -2 -44 5
-24 14 -34 41 -43 34 -11 35 -14 35 -62 0 -28 7 -60 16 -74 17 -25 20 -90 5
-88 -11 1 -30 -30 -32 -53 -3 -37 -4 -39 -16 -32 -21 13 -83 5 -133 -18 -27
-13 -52 -26 -53 -31 -2 -4 -8 -5 -13 -1 -5 3 -9 0 -9 -6 0 -6 -3 -9 -7 -7 -17
10 -51 -13 -55 -37 -3 -14 -2 -28 1 -32 3 -3 6 -9 6 -12 2 -22 29 -119 36
-128 5 -6 19 -11 31 -10 16 1 22 9 25 31 6 40 23 57 23 22 0 -54 13 -77 39
-70 11 3 27 -3 39 -15 19 -19 19 -22 4 -44 -26 -36 -56 -58 -72 -52 -46 18
-53 18 -48 -4 11 -40 -69 -39 -107 2 -20 22 -33 26 -77 26 -100 0 -138 -48
-133 -165 1 -39 -1 -53 -8 -46 -6 6 -26 11 -43 11 -24 0 -33 -4 -33 -17 0 -28
-8 -168 -10 -172 0 -2 -14 14 -30 35 -57 75 -60 77 -84 61 -12 -7 -26 -24 -32
-35 -13 -28 -57 -29 -106 -3 -20 11 -50 22 -68 24 -22 4 -45 19 -67 44 -19 21
-34 41 -34 44 0 11 -84 9 -91 -3 -4 -6 1 -33 11 -60 l18 -48 -21 -1 c-43 -1
-61 -8 -85 -33 -23 -22 -25 -33 -26 -111 -2 -78 0 -88 19 -97 11 -6 21 -11 23
-10 9 7 11 -1 3 -16 -5 -10 -32 -24 -60 -31 -62 -16 -109 -57 -106 -91 1 -14
3 -32 4 -41 3 -35 84 -50 133 -25 26 14 26 14 24 -18 -2 -17 0 -35 4 -41 4 -5
17 -27 28 -47 22 -38 19 -44 -23 -49 -5 -1 -27 -10 -49 -21 l-38 -20 7 -86 c4
-48 8 -121 10 -162 5 -109 13 -138 40 -156 31 -20 65 -10 66 19 1 44 8 60 38
89 17 17 31 34 31 40 0 5 9 4 20 -2 10 -6 25 -9 31 -8 7 2 18 -7 24 -20 19
-35 55 -56 93 -54 91 7 123 58 136 214 2 21 16 37 58 68 54 38 83 83 79 121
-1 9 12 28 29 41 26 20 31 32 33 73 l3 50 64 2 65 3 -30 -25 c-16 -14 -34 -25
-38 -25 -11 0 -31 -21 -44 -45 -22 -42 4 -141 48 -181 23 -20 83 -26 118 -11
15 5 29 10 32 9 49 -9 59 -9 70 4 20 24 19 77 -2 97 -26 25 -24 39 14 79 26
27 39 34 70 33 24 -1 42 -8 51 -20 18 -25 77 -25 102 -1 14 15 19 36 20 90 1
39 2 82 3 94 1 34 25 22 27 -14 3 -72 0 -70 91 -79 77 -8 101 -13 145 -32 35
-15 35 -17 19 -35 -16 -17 -20 -53 -12 -115 2 -17 39 -36 78 -40 28 -3 35 1
49 29 9 18 22 36 27 40 16 10 29 -1 23 -20 -2 -10 -7 -26 -10 -38 -6 -18 1
-23 53 -37 56 -16 91 -43 119 -93 5 -9 24 -17 43 -19 36 -3 344 -15 544 -21
66 -2 132 -5 148 -7 15 -3 31 1 35 7 3 6 7 118 7 250 l0 238 88 0 c77 1 90 3
113 24 30 28 44 29 90 8 36 -17 104 -15 128 5 8 7 22 34 32 61 16 45 46 71 59
50 3 -4 19 -10 37 -13 65 -10 139 50 108 88 -10 13 -9 15 9 15 13 0 21 -6 21
-17 0 -24 61 -100 92 -113 21 -10 26 -18 25 -43 -2 -28 4 -34 61 -67 69 -40
88 -62 96 -106 2 -16 5 -31 6 -34 1 -3 2 -8 1 -12 0 -4 13 -18 29 -32 25 -21
28 -26 15 -34 -20 -10 -26 -61 -11 -84 6 -10 23 -18 38 -18 35 0 44 -29 22
-72 -25 -46 -27 -55 -23 -105 2 -25 29 -53 51 -53 27 0 32 -24 12 -65 -13 -29
-14 -41 -6 -61 11 -22 17 -24 81 -24 37 0 86 6 108 14 42 15 151 14 162 -1 3
-4 18 -14 32 -21 14 -8 33 -27 43 -43 24 -40 61 -56 130 -54 l59 1 15 -38 c13
-32 20 -38 44 -38 16 0 42 7 57 15 27 13 32 13 77 -11 39 -21 68 -27 140 -31
109 -6 130 -18 138 -83 3 -25 5 -53 5 -62 1 -22 35 -32 96 -28 28 1 60 3 72 3
25 1 32 13 47 91 3 16 6 29 8 31 12 8 99 46 105 46 4 -1 7 -11 6 -24 0 -12 -3
-58 -6 -101 l-5 -80 33 -31 c23 -20 38 -47 46 -80 7 -28 20 -58 28 -69 11 -12
15 -34 13 -67 -3 -44 0 -49 25 -62 41 -19 72 -13 102 19 14 16 42 38 61 48 33
19 99 66 128 94 15 13 78 42 93 42 5 0 9 -9 9 -20 0 -37 88 -53 191 -36 41 7
49 5 68 -15 11 -12 21 -31 21 -41 0 -10 5 -18 10 -18 6 0 10 -7 10 -15 0 -8 3
-15 8 -16 4 0 15 -2 26 -4 28 -5 66 16 70 39 3 12 4 48 4 80 0 42 4 61 14 67
48 27 61 46 65 100 2 30 11 71 20 91 15 37 15 51 -3 194 -4 29 -1 44 10 53 13
11 16 9 22 -13 5 -22 11 -26 36 -24 30 2 78 50 78 76 0 7 5 12 12 12 6 0 9 3
5 6 -3 4 -1 12 6 19 7 7 19 22 27 34 8 11 19 21 25 21 17 0 33 34 40 84 4 25
12 47 19 47 6 1 23 3 38 4 16 2 29 -2 32 -11 7 -19 93 -19 141 2 20 8 49 26
64 40 31 30 61 48 62 37 0 -4 3 -30 5 -57 6 -57 27 -103 51 -110 10 -2 49 -4
86 -3 71 2 97 17 97 56 0 16 22 -6 78 -78 15 -19 35 -42 44 -52 9 -10 24 -29
33 -43 17 -25 20 -26 129 -26 l112 0 30 -52 c36 -64 64 -79 154 -82 38 -1 72
-5 75 -8 3 -3 8 -30 11 -59 3 -30 7 -55 8 -57 2 -1 -12 -18 -30 -36 -31 -31
-33 -36 -24 -67 6 -19 10 -35 10 -36 0 -9 73 -22 87 -16 10 5 35 8 55 6 28 -1
41 3 51 17 17 24 30 15 16 -11 -6 -13 -6 -25 1 -39 8 -15 7 -31 -4 -64 -18
-53 -14 -81 16 -114 37 -39 68 -50 104 -38 31 11 31 12 29 76 -3 79 1 87 26
59 24 -28 81 -21 114 16 22 22 45 81 45 112 0 19 39 26 63 10 12 -7 39 -14 60
-14 42 0 62 -20 65 -66 3 -41 7 -45 44 -41 50 6 73 49 82 156 2 12 12 18 49
23 l37 6 -1 -48 c-2 -53 18 -108 58 -166 38 -54 54 -60 119 -46 47 11 56 10
67 -3 9 -12 36 -17 104 -20 87 -4 93 -6 135 -39 73 -60 92 -68 171 -70 43 0
44 -2 17 -29 -35 -35 -6 -92 57 -109 45 -13 61 -6 78 35 12 30 18 34 52 34 51
0 63 14 63 71 0 66 14 97 46 105 26 7 58 -4 55 -19 -1 -4 6 -21 14 -37 8 -16
15 -33 15 -37 -1 -5 13 -11 31 -14 17 -4 38 -13 45 -21 15 -15 10 -48 -7 -48
-5 0 -9 -11 -9 -24 0 -35 -19 -45 -95 -50 -73 -5 -94 -19 -67 -45 14 -15 13
-16 -23 -19 -21 -2 -41 1 -44 6 -10 14 -46 31 -62 28 -25 -5 -54 -19 -61 -30
-10 -15 2 -59 19 -69 7 -4 13 -15 13 -22 0 -8 4 -15 8 -15 5 0 7 -13 4 -29 -3
-23 1 -32 19 -42 13 -7 24 -11 24 -9 0 2 16 -2 36 -9 35 -11 47 -31 53 -93 2
-19 37 -47 55 -43 19 3 19 3 2 -28 -27 -47 -16 -126 17 -128 9 0 25 -2 35 -4
9 -2 17 1 17 6 0 5 7 9 15 9 8 0 15 4 15 9 0 8 24 17 74 27 10 2 29 10 43 19
50 33 119 27 150 -14 12 -16 28 -91 26 -124 0 -12 16 -30 45 -48 25 -16 58
-49 73 -73 28 -45 58 -59 96 -45 25 9 60 67 76 126 8 31 24 56 48 77 55 47 63
68 43 113 -10 21 -16 42 -15 46 1 4 -3 16 -8 26 -6 10 -6 33 -2 54 5 20 6 39
3 42 -3 3 -6 19 -7 36 -1 17 -6 34 -12 37 -6 4 -20 27 -31 52 -51 115 -59 169
-30 206 28 34 21 72 -36 217 -51 129 -59 175 -36 197 15 13 71 202 75 248 3
44 -4 125 -19 208 -4 23 9 52 19 42 14 -14 64 15 79 46 8 18 29 50 47 72 56
70 78 111 85 161 4 28 16 59 30 76 27 32 26 29 29 77 2 19 4 37 5 40 1 3 1 10
0 15 -13 57 -9 87 16 110 27 25 39 80 22 102 -21 26 -10 139 18 194 21 42 24
106 4 124 -15 13 -22 14 -46 3 -16 -6 -36 -18 -45 -25 -9 -8 -39 -16 -68 -20
-43 -5 -51 -3 -51 11 0 9 -7 19 -15 22 -8 3 -22 31 -31 62 -26 88 -48 132 -91
180 -13 14 -23 31 -23 38 0 30 -24 61 -53 72 -35 12 -111 9 -130 -5 -17 -13
-42 -10 -43 5 -1 6 -2 18 -3 26 -2 29 -29 44 -70 39 l-41 -5 16 37 c8 20 14
53 12 73 -3 33 -6 37 -33 39 -183 9 -223 15 -226 32 -11 62 -5 107 14 108 18
1 87 12 122 19 17 3 72 7 124 8 85 2 97 4 122 27 27 25 28 29 16 114 -5 33 9
42 55 36 24 -3 67 -6 95 -6 29 0 53 -2 53 -5 0 -3 35 -6 78 -7 73 -3 80 -1 91
20 9 17 9 30 2 50 -9 23 -7 31 9 47 11 11 26 20 33 21 41 2 64 12 84 36 20 25
21 39 8 98 -3 16 7 25 47 45 27 14 59 24 70 22 10 -2 39 8 63 23 25 14 71 30
102 36 78 14 88 17 110 37 22 19 23 62 3 86 -8 10 -10 28 -6 48 3 18 7 39 8
46 1 6 5 12 10 12 4 0 8 7 8 15 0 8 16 33 37 55 33 38 35 43 26 75 -8 24 -7
37 0 44 9 9 8 17 0 30 -20 31 -4 61 42 81 35 15 44 24 49 53 7 40 57 94 165
177 52 40 77 69 96 107 14 28 50 76 80 106 63 63 68 93 23 135 -31 30 -69 33
-114 9 -30 -15 -31 -15 -47 13 -10 16 -30 34 -47 41 -16 8 -35 25 -42 39 -24
47 -43 65 -70 66 -16 0 -28 -5 -28 -10 0 -6 -4 -5 -9 3 -5 8 -7 19 -5 26 10
24 -24 38 -73 30 -27 -4 -48 -6 -48 -4 0 1 -10 -3 -21 -9 -28 -15 -36 -5 -20
22 8 11 16 35 19 53 7 34 -6 45 -42 38 -24 -4 -38 11 -45 49 -7 39 -17 47 -57
48 -19 1 -50 8 -68 16 -19 7 -42 15 -50 17 -57 11 -103 29 -150 59 -48 30 -61
33 -108 30 -29 -2 -61 -8 -71 -12 -9 -5 -38 -13 -65 -16 -31 -5 -62 -19 -91
-41 -52 -39 -94 -62 -127 -69 -34 -7 -74 -20 -154 -51 -85 -33 -134 -39 -136
-16 -1 9 -1 19 0 24 0 4 -4 7 -10 7 -6 0 -10 12 -9 28 4 53 1 61 -27 64 -22 2
-27 9 -30 34 -5 41 16 58 59 48 47 -11 69 -11 101 -1 31 10 30 5 13 79 l-14
56 33 6 c38 8 61 43 64 104 1 7 12 17 25 22 55 21 63 42 62 160 -1 105 2 116
28 111 6 -1 28 -3 49 -3 44 0 51 6 112 99 53 83 54 93 3 126 -24 15 -26 22
-24 69 1 29 9 72 16 96 11 36 11 45 0 52 -15 9 -115 3 -139 -9 -9 -5 -31 -3
-51 4 -26 9 -35 18 -36 35 -2 41 -37 59 -97 52 -28 -3 -67 -6 -84 -6 -18 0
-33 -4 -33 -8 0 -4 -5 -8 -11 -8 -17 0 -108 -63 -115 -80 -13 -32 -22 -80 -14
-80 5 0 11 -9 15 -19 6 -19 19 -24 90 -37 62 -11 87 -68 66 -147 -6 -23 -14
-53 -16 -66 -7 -39 -27 -43 -47 -11 -9 16 -29 32 -43 36 -14 3 -25 9 -26 13
-6 51 -18 87 -38 113 -16 20 -27 24 -61 22 -23 -1 -50 -10 -61 -20 -20 -18
-22 -15 -19 27 1 22 -4 27 -27 31 -40 5 -63 -1 -63 -18 0 -15 -2 -15 -65 -18
-37 -1 -105 27 -105 43 0 4 7 16 15 27 20 27 18 57 -6 88 l-21 27 24 -6 c19
-5 27 -1 36 20 7 14 12 34 12 44 0 21 -30 51 -57 56 -10 2 -19 4 -21 4 -1 1 5
12 14 26 16 24 16 52 -1 159 -4 32 -2 42 17 60 33 30 68 90 68 115 0 16 6 21
26 21 37 0 82 29 93 61 5 15 7 30 4 33 -15 15 -5 52 20 77 22 23 26 32 18 47
-6 11 -8 22 -4 25 3 3 -8 9 -23 12 -50 11 -56 15 -51 29 17 44 -57 62 -140 33
-26 -9 -56 -12 -80 -8 -45 8 -151 -28 -167 -57 -31 -53 -3 -91 70 -95 l49 -2
-3 -35 c-2 -19 -13 -53 -24 -77 -14 -30 -19 -56 -16 -86 4 -35 1 -47 -14 -56
-35 -22 -53 -14 -55 26 -3 61 -43 70 -97 22 -46 -40 -79 -94 -72 -117 4 -13
-1 -22 -19 -32 -13 -7 -27 -23 -31 -34 -3 -12 -15 -28 -26 -37 -11 -9 -21 -29
-23 -46 -1 -17 -5 -36 -9 -42 -11 -17 -45 -13 -73 9 -18 14 -35 18 -61 15 -43
-5 -61 -21 -68 -60 -3 -15 -9 -35 -13 -44 -4 -9 -5 -27 0 -41 4 -14 8 -20 8
-15 1 6 6 2 12 -8 5 -9 8 -21 5 -26 -23 -37 122 -44 212 -10 17 6 22 5 22 -6
0 -8 6 -15 13 -16 111 -7 144 -15 183 -46 49 -37 60 -69 36 -102 -21 -29 -20
-66 3 -91 8 -9 15 -19 15 -22 0 -11 -81 -38 -93 -31 -13 7 -42 44 -42 53 0 3
-10 19 -21 35 -15 20 -31 29 -53 31 -35 2 -38 0 -45 -41 -4 -22 4 -47 30 -95
20 -36 38 -83 40 -104 2 -22 6 -41 9 -44 3 -3 0 -11 -6 -18 -6 -8 -6 -14 0
-18 6 -4 6 -18 1 -36 -5 -17 -6 -30 -3 -30 3 0 0 -7 -7 -15 -17 -21 -7 -91 19
-126 29 -39 27 -50 -6 -38 -16 5 -37 23 -48 39 -19 28 -52 45 -100 53 -31 4
-47 18 -41 33 3 8 -6 20 -22 28 -16 8 -41 28 -58 44 -19 20 -41 31 -64 33 -19
2 -42 11 -51 22 -17 21 -74 26 -91 9 -21 -21 -13 -81 15 -110 15 -16 27 -37
26 -48 0 -13 -5 -10 -15 14 -16 38 -23 39 -66 12 -43 -26 -58 -25 -58 5 0 59
-36 92 -108 97 -19 1 -42 12 -54 25 -41 44 -77 25 -87 -46 0 -5 -9 -12 -20
-16 -28 -9 -19 -80 10 -80 5 0 8 -4 8 -10 -1 -10 -5 -20 -30 -82 -6 -16 -13
-38 -15 -49 -5 -25 30 -74 52 -74 24 0 7 -36 -36 -78 -80 -79 -97 -93 -118
-97 -14 -2 -23 2 -26 13 -7 27 -20 126 -17 140 2 13 -39 33 -52 25 -13 -8 -88
27 -119 55 -14 13 -28 25 -31 25 -9 3 -57 -46 -57 -57 0 -6 -15 -31 -33 -55
-27 -37 -39 -45 -70 -47 -44 -4 -97 -32 -97 -51 0 -25 -16 -13 -28 21 -7 19
-19 37 -27 40 -10 3 -12 15 -8 41 7 41 -17 75 -52 75 -28 0 -58 -33 -51 -57 3
-10 2 -24 -3 -31 -6 -11 -10 -10 -16 5 -5 10 -9 23 -9 28 -2 17 -53 17 -85 1
-28 -15 -66 -12 -56 4 4 6 -26 19 -46 20 -3 0 -22 -16 -42 -35 -20 -19 -44
-35 -54 -36 -10 0 -27 -3 -38 -5 -52 -13 -58 -10 -86 46 -16 30 -26 56 -25 58
2 2 0 18 -4 37 -5 21 -4 33 1 29 6 -3 7 5 3 20 -5 21 2 32 38 66 47 46 136
106 150 102 4 -1 8 2 8 8 0 5 6 10 13 10 6 1 30 9 52 20 22 11 49 20 60 20 27
0 69 66 72 110 4 63 -7 120 -23 120 -8 0 -40 -11 -72 -24 -38 -15 -69 -22 -93
-19 -30 4 -41 0 -62 -22 -19 -21 -36 -28 -73 -31 -34 -2 -59 -11 -88 -34 -123
-92 -125 -93 -189 -91 -62 2 -87 13 -87 38 0 20 -36 87 -54 103 -15 12 -106
21 -198 20 -30 0 -38 3 -39 17 -1 37 -9 123 -13 145 -10 54 -17 60 -55 53 -50
-9 -181 -14 -182 -6 -1 3 -3 21 -5 40 -2 19 -11 46 -20 59 -9 14 -12 27 -7 31
4 3 27 18 50 34 42 27 57 54 49 92 -3 11 -5 24 -5 28 -1 5 -5 6 -10 2 -14 -8
-23 12 -27 63 -2 26 -7 48 -12 50 -4 1 -6 18 -4 36 3 27 -2 40 -25 64 -38 40
-113 74 -168 76 -40 2 -46 -1 -51 -21 -7 -26 27 -97 57 -122 17 -13 19 -21 11
-42 -21 -54 -65 -66 -157 -45 -11 2 -26 5 -33 5 -7 1 -11 5 -8 10 9 14 -21 33
-56 37 -40 5 -43 8 -23 27 28 29 44 78 32 104 -5 13 -15 24 -21 25 -6 0 -15 2
-21 3 -5 2 -19 3 -30 4 -11 1 -36 15 -54 31 -30 25 -35 35 -33 68 2 26 -4 47
-18 64 l-20 26 32 27 c18 15 37 34 41 42 14 24 -11 68 -52 91 -20 12 -50 33
-65 47 l-27 25 29 38 c16 20 34 47 41 59 35 68 -15 115 -71 66 -15 -14 -19
-10 -42 36 -27 53 -83 116 -128 146 -27 16 -102 28 -113 17z m-1960 -1302 c3
-5 1 -10 -4 -10 -6 0 -11 5 -11 10 0 6 2 10 4 10 3 0 8 -4 11 -10z m-2235
-3924 c-7 -7 -14 -6 -21 1 -9 9 -7 12 9 10 14 -1 18 -5 12 -11z"/>
</g>
</svg>
